<svg id="visual" viewBox="0 0 900 600" width="900" height="600" xmlns="http://www.w3.org/2000/svg" xmlns:xlink="http://www.w3.org/1999/xlink" version="1.1"><rect x="0" y="0" width="900" height="600" fill="#5CDB95"></rect><path d="M0 261L30 285.2C60 309.3 120 357.7 180 383.5C240 409.3 300 412.7 360 398.5C420 384.3 480 352.7 540 350.3C600 348 660 375 720 387.7C780 400.3 840 398.7 870 397.8L900 397L900 601L870 601C840 601 780 601 720 601C660 601 600 601 540 601C480 601 420 601 360 601C300 601 240 601 180 601C120 601 60 601 30 601L0 601Z" fill="#EDF5E1" stroke-linecap="round" stroke-linejoin="miter"></path></svg>